<svg width="435" height="435" viewBox="0 0 435 435" fill="none" xmlns="http://www.w3.org/2000/svg">
<circle cx="217.2" cy="217.2" r="209.949" fill="black" stroke="#D30019" stroke-width="14.5013"/>
<path d="M188.757 65.6406L188.886 65.8682L217.606 115.882L246.326 65.8682L246.457 65.6406H304.749L304.88 65.8682L333.763 116.168L333.892 116.394L333.763 116.619L304.88 166.918L304.814 167.032H362.969L363.098 167.26L391.983 217.559L392.112 217.784L391.983 218.01L363.098 268.31L362.969 268.537H304.881L333.763 318.835L333.892 319.061L333.763 319.286L304.88 369.586L304.749 369.813H246.457L246.326 369.586L217.606 319.571L188.886 369.586L188.757 369.813H130.465L130.334 369.586L101.45 319.286L101.32 319.061L101.45 318.835L130.333 268.537H72.6921L72.5613 268.31L43.6775 218.01L43.5476 217.784L43.6775 217.559L72.5613 167.26L72.6921 167.032H130.399L130.334 166.918L101.45 116.619L101.32 116.394L101.45 116.168L130.334 65.8682L130.465 65.6406H188.757ZM217.606 318.549L246.325 268.537H188.887L217.606 318.549ZM247.107 268.309H304.545L275.826 218.295L247.107 268.309ZM131.115 268.309H188.552L159.834 218.295L131.115 268.309ZM131.114 167.26L159.834 217.272L188.553 167.26L188.619 167.146H131.049L131.114 167.26ZM247.106 167.26L275.826 217.272L304.546 167.26L304.611 167.146H247.041L247.106 167.26ZM188.886 166.918L188.821 167.032H246.391L246.326 166.918L217.606 116.904L188.886 166.918Z" fill="#D30019" stroke="#D30019" stroke-width="0.905636"/>
</svg>
