<svg width="624" height="624" viewBox="0 0 624 624" fill="none" xmlns="http://www.w3.org/2000/svg">
<circle cx="312" cy="312" r="304.792" stroke="#FF0000" stroke-width="14.4164"/>
<path d="M268.764 92.8535L310.307 165.197L268.764 237.541H185.679L144.137 165.197L185.679 92.8535L268.764 92.8535Z" fill="#FF0000"/>
<path d="M268.764 384.342L310.307 456.686L268.764 529.03H185.679L144.137 456.686L185.679 384.342H268.764Z" fill="#FF0000"/>
<path d="M185.672 238.68L227.215 311.024L185.672 383.368H102.587L61.0449 311.024L102.587 238.68H185.672Z" fill="#FF0000"/>
<path d="M435.591 92.8535L477.133 165.197L435.591 237.541H352.506L310.964 165.197L352.506 92.8535L435.591 92.8535Z" fill="#FF0000"/>
<path d="M435.591 384.342L477.133 456.686L435.591 529.03H352.506L310.964 456.686L352.506 384.342H435.591Z" fill="#FF0000"/>
<path d="M352.499 238.68L394.042 311.024L352.499 383.368H269.414L227.872 311.024L269.414 238.68H352.499Z" fill="#FF0000"/>
<path d="M519.326 238.68L560.868 311.024L519.326 383.368H436.241L394.699 311.024L436.241 238.68H519.326Z" fill="#FF0000"/>
</svg>
